<?xml version="1.0" encoding="utf-8"?>
<!-- Generator: Adobe Illustrator 15.0.0, SVG Export Plug-In . SVG Version: 6.00 Build 0)  -->
<!DOCTYPE svg PUBLIC "-//W3C//DTD SVG 1.1//EN" "http://www.w3.org/Graphics/SVG/1.1/DTD/svg11.dtd">
<svg version="1.1" id="Layer_1" xmlns="http://www.w3.org/2000/svg" xmlns:xlink="http://www.w3.org/1999/xlink" x="0px" y="0px"
	 width="225.5px" height="225.5px" viewBox="0 -18.5 225.5 225.5" enable-background="new 0 -18.5 225.5 225.5"
	 xml:space="preserve">
<path fill="#FBB041" d="M112.985,31.372c-38.657,0-69.997,31.339-69.997,69.996H182.98C182.98,62.71,151.645,31.372,112.985,31.372z
	"/>
<g>
	<path fill="#C41230" d="M168.396,58.603l-55.417,42.75l0.002-0.018l42.739-55.402c-4.9-3.785-10.316-6.932-16.127-9.322
		l-26.612,64.717l9.312-69.341c-3.045-0.405-6.151-0.617-9.309-0.617c-3.161,0-6.271,0.213-9.322,0.62l9.313,69.364l-0.006,0.004
		l0.006-0.002l0.001,0.011l0.002-0.013l64.75-26.625C175.336,68.921,172.186,63.504,168.396,58.603z"/>
	<path fill="#C41230" d="M86.352,36.622c-5.807,2.392-11.221,5.541-16.12,9.325l42.734,55.396L86.352,36.622z"/>
	<path fill="#C41230" d="M48.236,74.741l64.734,26.618L57.563,58.616C53.777,63.517,50.629,68.932,48.236,74.741z"/>
</g>
<path fill="none" d="M55.127,35.378c0.867-0.781,1.424-1.452,1.669-2.015c0.355-0.781,0.195-1.548-0.485-2.304
	c-0.601-0.668-1.225-0.951-1.875-0.847c-0.646,0.106-1.495,0.629-2.542,1.571l-5.717,5.14l3.231,3.595L55.127,35.378z"/>
<polygon fill="none" points="196.738,67.375 189.133,66.954 191.762,73.239 "/>
<polygon fill="none" points="36.667,66.052 28.982,66.462 33.903,72.281 "/>
<path fill="none" d="M136.6,26.989c2.098,0.661,4.021,0.52,5.768-0.42c1.613-0.86,2.713-2.211,3.294-4.051
	c0.628-1.995,0.521-3.799-0.315-5.406c-0.918-1.738-2.422-2.949-4.509-3.634c-2.098-0.661-4.019-0.527-5.761,0.401
	c-1.622,0.873-2.73,2.259-3.327,4.159c-0.599,1.889-0.479,3.654,0.349,5.297C132.99,25.107,134.491,26.325,136.6,26.989z"/>
<path fill="#C41230" d="M112.872,177.917c-37.726,0-69.094-27.709-74.838-63.844l-6.434,0.92
	c6.195,39.28,40.275,69.419,81.271,69.419c40.559,0,74.332-29.503,81.048-68.169l-6.437-0.92
	C181.221,150.842,150.16,177.917,112.872,177.917z"/>
<path fill="#C41230" d="M219.841,87.427c-0.03-0.143-0.051-0.241-0.051-0.241l-37.222,5.166l-3.9,0.542l-38.932,5.403l-0.422,0.307
	l-1.396,1.015l-1.394,1.014l-3.229,2.345l-0.225,0.164l-2.787,2.024l36.602,5.233l11.51,1.646l9.42,1.349l6.431,0.918l24.563,3.512
	l0.797,0.111l0.184,0.026C222.294,100.441,220.188,89.103,219.841,87.427z"/>
<path fill="#FFFFFF" d="M193.908,102.102c0,0.025,0.007,0.047,0.007,0.072c0,1.793-1.207,3.162-2.983,3.563
	c-0.347,0.08-0.705,0.137-1.093,0.137c-2.069,0-3.679-1.27-4.004-3.039c-0.038-0.213-0.067-0.434-0.067-0.66
	c0-0.769,0.228-1.454,0.616-2.025c0.699-1.026,1.94-1.676,3.455-1.676C192.174,98.473,193.868,99.999,193.908,102.102z
	 M181.32,105.609H174c-0.012-0.106-0.021-0.213-0.021-0.311c0-1.33,0.793-1.666,3.084-2.438l0.082-0.026l0.371-0.125
	c2.178-0.729,3.613-1.211,3.613-2.896c0-1.664-1.671-2.873-3.977-2.873c-1.6,0-3.116,0.569-4.637,1.74l-0.14,0.107l0.957,1.244
	l0.14-0.096c1.422-1,2.627-1.468,3.791-1.468c1.446,0,2.204,0.666,2.204,1.322c0,0.658-0.96,0.979-2.706,1.563
	c-0.438,0.146-0.929,0.309-1.467,0.498c-0.789,0.278-1.388,0.594-1.838,0.979c-0.167,0.145-0.314,0.293-0.439,0.459
	c-0.47,0.615-0.664,1.398-0.664,2.457l0.039,1.373h0.166h8.76L181.32,105.609L181.32,105.609z M195.578,102.174
	c0-0.025-0.008-0.047-0.008-0.072c-0.041-2.992-2.434-5.158-5.731-5.158c-1.403,0-2.628,0.414-3.592,1.101
	c-1.312,0.935-2.124,2.388-2.124,4.131c0,0.229,0.04,0.443,0.064,0.66c0.33,2.668,2.59,4.552,5.649,4.552
	c0.338,0,0.657-0.037,0.976-0.082C193.621,106.917,195.578,104.887,195.578,102.174z M200.887,103.303v-6.174h-0.949h-0.674v10.049
	h1.623V103.303L200.887,103.303z M214.268,105.609h-7.316c-0.012-0.106-0.021-0.213-0.021-0.311c0-1.053,0.557-1.498,1.842-1.996
	c0.357-0.139,0.765-0.279,1.242-0.441l0.453-0.151c0.559-0.187,1.064-0.356,1.512-0.535c1.307-0.52,2.104-1.104,2.104-2.358
	c0-1.135-0.786-2.045-2.01-2.519c-0.392-0.149-0.822-0.258-1.296-0.31c-0.219-0.024-0.438-0.045-0.672-0.045
	c-1.601,0-3.117,0.568-4.637,1.74l-0.139,0.105l0.956,1.245l0.139-0.097c1.313-0.924,2.438-1.373,3.521-1.438
	c0.092-0.006,0.186-0.027,0.271-0.027c0.446,0,0.801,0.078,1.113,0.185c0.702,0.239,1.089,0.684,1.089,1.139
	c0,0.662-0.962,0.979-2.706,1.563c-0.43,0.144-0.908,0.304-1.432,0.486c-0.012,0.004-0.021,0.006-0.033,0.01
	c-1.053,0.373-1.771,0.808-2.234,1.392c-0.496,0.623-0.707,1.418-0.707,2.504c0,0.069,0.006,0.222,0.012,0.453l0.029,0.92h8.92
	V105.609L214.268,105.609z"/>
<path fill="#C41230" d="M92.917,103.139l-0.226-0.164l-5.151-3.742l-1.394-1.014l-0.391-0.283l-1.004-0.729l-0.577-0.422
	l-36.942-5.126l-4.506-0.626l-36.52-5.068c0,0-0.028,0.133-0.068,0.33c-0.039,0.187-0.087,0.441-0.15,0.799
	c-0.584,3.35-2.008,14.051,0.218,29.643l0.332-0.047l24.808-3.547l6.43-0.918l9.397-1.344l12.579-1.799l34.547-4.938l-0.228-0.166
	L92.917,103.139z"/>
<path fill="#FFFFFF" d="M28.633,101.038c-1.503,0.883-2.792,1.278-4.169,1.278c-1.834,0-3.27-0.95-3.27-2.164
	c0-1.041,1.193-2.161,3.119-2.161C26.477,97.991,28.347,99.32,28.633,101.038z M15.284,96.646h-1.625v10.049h1.625V96.646z
	 M30.424,101.747c0-3.063-2.563-5.287-6.092-5.287c-2.825,0-4.799,1.521-4.799,3.692c0,2.132,2.09,3.679,4.969,3.679
	c1.427,0,2.699-0.302,4.075-0.978c-0.419,1.584-1.86,2.517-3.927,2.517c-1.223,0-2.428-0.445-3.483-1.291l-0.133-0.104l-0.975,1.125
	l0.136,0.114c1.363,1.152,2.797,1.688,4.512,1.688C28.072,106.9,30.424,104.781,30.424,101.747z M36.128,102.102v-5.455h-1.625
	v5.455v4.594h1.625V102.102z M41.798,106.639h2.952h5.134v-1.514h-5.25h-2.071c-0.011-0.107-0.02-0.213-0.02-0.313
	c0-1.039,0.496-1.474,1.801-1.979c0.063-0.023,0.133-0.049,0.199-0.076c0.32-0.117,0.669-0.24,1.082-0.379l0.45-0.15
	c2.179-0.729,3.62-1.213,3.62-2.897c0-1.664-1.672-2.871-3.975-2.871c-0.329,0-0.652,0.041-0.976,0.088
	c-1.043,0.156-2.058,0.578-3.066,1.252c-0.199,0.134-0.398,0.248-0.596,0.4l-0.142,0.106l0.69,0.894l0.271,0.354l0.137-0.099
	c0.956-0.67,1.786-1.072,2.583-1.283c0.408-0.108,0.811-0.182,1.21-0.182c1.446,0,2.202,0.664,2.202,1.321
	c0,0.658-0.961,0.98-2.703,1.562c-0.242,0.082-0.535,0.185-0.806,0.274c-0.223,0.074-0.418,0.14-0.66,0.226
	c-1.073,0.379-1.803,0.819-2.269,1.422c-0.01,0.015-0.021,0.024-0.03,0.039c-0.457,0.61-0.646,1.39-0.646,2.433l0.041,1.373
	L41.798,106.639L41.798,106.639z"/>
<path fill="#003E7E" d="M130.288,105.165l-0.392,0.283l-0.67,0.487l0.082,0.25l0.28,0.859l0.476,1.467l9.194,28.291l-23.186-16.844
	l-3.08-2.234l-3.433,2.496l-22.828,16.582l9.429-29.014l0.601-1.854l-0.295-0.215l-0.943-0.688l-0.942-0.688l-0.282-0.203
	l-34.547,4.938c0.015,0.08,0.031,0.159,0.046,0.238c0.049,0.268,0.102,0.535,0.153,0.801c0.053,0.266,0.098,0.533,0.152,0.797
	c5.381,25.504,27.208,44.598,53.339,44.598c25.652,0,47.147-18.398,53.021-43.197c0.063-0.266,0.132-0.524,0.188-0.791
	c0.06-0.268,0.115-0.53,0.172-0.799c0.021-0.108,0.041-0.221,0.063-0.33L130.288,105.165z"/>
<polygon fill="#FFFFFF" points="95.67,106.292 67.639,85.925 102.291,85.925 112.995,52.968 123.7,85.925 158.35,85.925 
	130.325,106.293 141.037,139.249 112.995,118.877 84.962,139.249 "/>
<polygon fill="#FBB041" points="112.995,61.247 104.149,88.482 75.51,88.482 98.675,105.314 89.826,132.553 112.995,115.715 
	136.172,132.553 127.318,105.316 150.48,88.482 121.842,88.482 "/>
<g>
	<path d="M56.301,126.227c0.938-1.227,1.173-2.774,0.618-4.301c-0.893-2.459-3.361-3.602-5.865-2.693
		c-0.729,0.265-1.327,0.672-1.809,1.158c-0.353,0.354-0.646,0.75-0.853,1.188c-0.48,1.03-0.544,2.25-0.102,3.476
		c0.603,1.663,1.889,2.731,3.599,2.977c0.001,0,0.003,0.002,0.004,0.002l0.056-0.184l0.258-0.86
		c-0.253-0.036-0.474-0.11-0.697-0.181c-1.09-0.338-1.87-1.039-2.254-2.104c-0.331-0.908-0.276-1.828,0.102-2.611
		c0.074-0.155,0.17-0.299,0.27-0.44c0.41-0.592,1.017-1.077,1.809-1.363c1.954-0.709,3.857,0.152,4.523,1.986
		c0.358,0.996,0.252,2.018-0.252,2.841c-0.102,0.163-0.19,0.331-0.323,0.478l0,0L56.301,126.227L56.301,126.227L56.301,126.227z"/>
	<polygon points="57.347,137.846 55.549,139.143 55.557,139.155 59.779,145.02 60.584,144.439 60.598,144.43 57.009,139.449 
		57.002,139.438 57.941,138.758 59.572,137.584 61.619,140.43 62.421,139.855 62.435,139.842 60.396,137.008 60.388,136.999 
		62.468,135.499 65.855,140.202 66.659,139.627 66.675,139.615 62.649,134.025 	"/>
	<polygon points="78.194,150.402 74.21,155.434 74.132,155.531 74.129,155.454 74.125,155.374 73.738,146.874 73.73,146.868 
		73.295,146.52 69.311,151.551 67.891,153.346 67.86,153.383 68.715,154.059 70.134,152.266 72.767,148.938 72.775,148.927 
		73.042,154.592 73.18,157.534 73.183,157.596 73.615,157.938 75.098,156.064 79.048,151.079 79.009,151.045 	"/>
	<polygon points="86.45,155.547 86.449,155.547 86.059,156.477 89.159,157.78 89.455,157.904 87.396,162.799 86.455,165.04 
		86.455,165.04 86.455,165.043 87.46,165.465 88.413,163.199 90.464,158.329 93.317,159.527 93.86,159.756 94.251,158.827 
		86.452,155.547 	"/>
	<polygon points="102.673,160.977 101.872,166.948 101.51,169.643 108.683,170.605 108.688,170.607 108.822,169.611 102.722,168.79 
		102.945,167.129 103.143,165.659 103.145,165.652 106.617,166.12 106.654,165.852 106.754,165.12 103.277,164.652 103.619,162.12 
		103.619,162.113 109.361,162.883 109.363,162.883 109.497,161.883 102.675,160.967 	"/>
	<polygon points="126.336,160.813 126.333,160.79 125.254,160.941 126.061,166.559 126.184,167.422 125.335,166.688 
		119.628,161.749 119.063,161.831 119.877,167.5 120.307,170.497 120.329,170.493 121.385,170.34 120.958,167.366 120.456,163.864 
		120.48,163.885 123.906,166.838 124.005,166.924 127.027,169.532 127.572,169.456 127.124,166.322 	"/>
	<polygon points="142.734,154.889 142.723,154.861 141.734,155.313 143.954,160.146 144.465,161.256 144.466,161.262 
		143.037,160.616 136.607,157.704 136.572,157.688 136.055,157.924 138.302,162.816 139.708,165.877 139.732,165.868 
		140.697,165.422 139.303,162.389 137.964,159.477 138.004,159.495 141.846,161.227 145.878,163.045 145.88,163.043 
		146.379,162.813 144.915,159.629 	"/>
	<polygon points="152.284,148.318 152.234,148.357 151.422,149.006 154.648,153.063 156.884,155.874 156.922,155.92 
		157.785,155.232 155.501,152.361 	"/>
	<path d="M162.432,137.945l-0.007,0.011l-0.552,0.711l2.377,4.849l1.91,3.895l0.004,0.01l0.717-0.926l-1.154-2.354l2.961-3.817
		l0.002-0.005l2.578,0.502l0.01,0.002l0.729-0.938l-4.371-0.885L162.432,137.945z M165.223,143.109l-0.25-0.518l-1.636-3.361
		l-0.005-0.01l3.626,0.725l0.624,0.127l-2.355,3.042L165.223,143.109z"/>
	<polygon points="179.127,123.163 179.111,123.156 176.963,128.427 174.063,127.247 169.807,125.508 169.798,125.529 
		169.786,125.523 169.375,126.531 173.609,128.256 177.479,129.833 177.484,129.818 177.498,129.824 180.066,123.521 
		179.134,123.141 	"/>
</g>
<polygon points="216.197,123.54 215.217,120.443 214.266,120.443 214.266,124.318 214.857,124.318 214.857,121.018 215.9,124.318 
	216.484,124.318 217.484,121.064 217.484,124.318 218.074,124.318 218.074,120.443 217.143,120.443 "/>
<polygon points="210.661,121.018 211.918,121.018 211.918,124.318 212.564,124.318 212.564,121.018 213.83,121.018 213.83,120.443 
	210.661,120.443 "/>
<path d="M23.846,67.213c0.408,0.181,0.823,0.526,1.25,1.034l11.248,13.505c0.451,0.547,0.727,0.971,0.83,1.274
	c0.101,0.303,0.091,0.688-0.036,1.159l0.487,0.217l3.176-7.159l-0.487-0.216c-0.479,0.676-1,0.891-1.556,0.644
	c-0.291-0.128-0.636-0.429-1.038-0.899l-1.676-1.951l3.976-8.958l2.472-0.192c0.659-0.055,1.169-0.002,1.525,0.155
	c0.577,0.257,0.766,0.789,0.556,1.6l0.487,0.217l3.532-7.96l-0.489-0.216c-0.303,0.436-0.617,0.719-0.943,0.853
	c-0.327,0.132-0.959,0.231-1.9,0.301L28.019,61.8c-0.686,0.042-1.22-0.021-1.602-0.191c-0.533-0.236-0.785-0.731-0.759-1.481
	l-0.485-0.217l-3.359,7.569l0.489,0.215C22.856,67.163,23.372,67.003,23.846,67.213z M36.667,66.052l-2.764,6.229l-4.921-5.819
	L36.667,66.052z"/>
<path d="M40.303,38.419c0.268,0.032,0.533,0.193,0.796,0.487l11.656,12.96c0.264,0.293,0.397,0.582,0.406,0.864
	c0.006,0.284-0.116,0.617-0.37,0.999l0.355,0.397l5.604-5.042l-0.357-0.395c-0.433,0.201-0.785,0.284-1.054,0.248
	c-0.273-0.036-0.54-0.201-0.803-0.494l-4.545-5.052l3.795-3.415l7.242,1.686c0.684,0.151,1.117,0.331,1.304,0.538
	c0.264,0.292,0.208,0.724-0.164,1.299l0.354,0.395l6.666-5.993l-0.355-0.396c-0.482,0.297-1.013,0.454-1.586,0.469
	c-0.576,0.016-1.485-0.117-2.726-0.396l-6.76-1.483c1.278-1.728,1.944-3.269,1.996-4.623c0.057-1.354-0.496-2.672-1.648-3.957
	c-1.518-1.688-3.184-2.39-4.996-2.109c-0.879,0.142-1.731,0.463-2.562,0.963c-0.831,0.499-1.921,1.355-3.271,2.569l-10.387,9.338
	l0.355,0.397C39.686,38.471,40.035,38.387,40.303,38.419z M51.894,31.783c1.047-0.942,1.896-1.465,2.542-1.571
	c0.649-0.104,1.273,0.179,1.875,0.847c0.681,0.755,0.841,1.522,0.485,2.304c-0.246,0.563-0.802,1.234-1.669,2.015l-5.718,5.14
	l-3.231-3.595L51.894,31.783z"/>
<path d="M71.87,15.634c0.243,0.117,0.443,0.354,0.6,0.715l6.914,16.002c0.156,0.361,0.193,0.676,0.11,0.948
	c-0.084,0.271-0.309,0.546-0.669,0.827l0.209,0.489l6.92-2.989l-0.213-0.487c-0.474,0.051-0.832,0.017-1.078-0.104
	c-0.247-0.122-0.449-0.362-0.604-0.723L77.15,14.324c-0.153-0.361-0.193-0.673-0.11-0.934c0.077-0.263,0.304-0.542,0.672-0.841
	l-0.211-0.488l-6.918,2.988l0.211,0.489C71.268,15.487,71.628,15.518,71.87,15.634z"/>
<path d="M93.596,12.102c0.092-0.474,0.229-0.809,0.414-1.002c0.184-0.195,0.477-0.311,0.881-0.354l10.271-1.047L94.463,27.183
	l0.115,1.137l19.006-1.938c0.407-0.042,0.721,0.019,0.947,0.182c0.229,0.161,0.421,0.455,0.578,0.885l0.512-0.051l-0.639-6.266
	l-0.512,0.052c-0.094,0.461-0.232,0.793-0.416,0.993c-0.184,0.202-0.479,0.321-0.882,0.363l-10.76,1.097L113.24,5.929L113.146,5
	L94.499,6.902c-0.404,0.04-0.722-0.016-0.945-0.173c-0.227-0.154-0.427-0.453-0.598-0.895l-0.514,0.053l0.641,6.266L93.596,12.102z"
	/>
<path d="M135.387,30.838c3.235,1.017,6.178,1.039,8.825,0.065c3.205-1.173,5.332-3.424,6.379-6.752
	c1.116-3.544,0.698-6.715-1.256-9.514c-1.64-2.323-4.074-3.995-7.31-5.014c-3.209-0.97-6.137-0.989-8.789-0.054
	c-3.204,1.133-5.354,3.435-6.446,6.908c-1.082,3.438-0.64,6.556,1.327,9.357C129.73,28.152,132.156,29.82,135.387,30.838z
	 M131.747,18.039c0.597-1.9,1.705-3.286,3.327-4.159c1.742-0.928,3.662-1.062,5.761-0.401c2.087,0.685,3.59,1.896,4.508,3.634
	c0.839,1.607,0.944,3.411,0.316,5.406c-0.581,1.839-1.681,3.191-3.294,4.051c-1.746,0.94-3.67,1.081-5.768,0.42
	c-2.106-0.665-3.607-1.882-4.504-3.654C131.268,21.692,131.15,19.927,131.747,18.039z"/>
<path d="M160.428,42.769c-0.24-0.393-0.357-0.731-0.347-1.014c0.01-0.283,0.146-0.57,0.412-0.858l8.166-8.91l0.812,15.871
	c0.027,0.776,0.034,1.287,0.021,1.528c-0.019,0.243-0.085,0.427-0.202,0.557c-0.239,0.26-0.604,0.244-1.092-0.05l-0.358,0.393
	l5.628,5.158l0.362-0.394c-0.244-0.409-0.362-0.752-0.351-1.028c0.01-0.274,0.146-0.555,0.412-0.844l11.771-12.839
	c0.265-0.29,0.532-0.454,0.807-0.487c0.271-0.033,0.619,0.058,1.041,0.271l0.36-0.394l-5.221-4.783l-0.357,0.393
	c0.249,0.403,0.369,0.741,0.357,1.015c-0.01,0.274-0.146,0.556-0.414,0.847l-7.934,8.658l-0.766-16.089
	c-0.023-0.574,0.064-0.972,0.271-1.197c0.239-0.262,0.613-0.255,1.117,0.02l0.36-0.395l-6.034-5.531l-0.359,0.393
	c0.242,0.411,0.359,0.752,0.354,1.021c-0.006,0.271-0.143,0.551-0.406,0.841l-11.777,12.851c-0.268,0.289-0.539,0.452-0.82,0.485
	c-0.28,0.036-0.625-0.054-1.028-0.271l-0.36,0.393l5.221,4.783L160.428,42.769z"/>
<path d="M179.08,61.948c-0.292-0.133-0.564-0.406-0.821-0.823l-0.491,0.206l3.022,7.225l0.489-0.205
	c-0.159-0.814,0.039-1.337,0.602-1.573c0.292-0.122,0.749-0.167,1.367-0.139l2.566,0.125l3.781,9.044l-1.559,1.927
	c-0.414,0.516-0.805,0.85-1.163,1c-0.583,0.245-1.101,0.013-1.542-0.694l-0.494,0.206l3.359,8.033l0.49-0.206
	c-0.106-0.518-0.099-0.941,0.029-1.271c0.129-0.329,0.49-0.858,1.088-1.586l10.983-13.34c0.438-0.529,0.853-0.872,1.239-1.033
	c0.539-0.227,1.066-0.07,1.599,0.467l0.491-0.207l-3.193-7.637l-0.492,0.204c0.006,0.77-0.23,1.253-0.713,1.454
	c-0.408,0.172-0.945,0.238-1.607,0.198l-17.539-1.104C179.867,62.172,179.367,62.082,179.08,61.948z M196.738,67.375l-4.979,5.865
	l-2.628-6.285L196.738,67.375z"/>
</svg>
